<svg xmlns="http://www.w3.org/2000/svg" xmlns:xlink="http://www.w3.org/1999/xlink" xml:space="preserve" stroke-miterlimit="10" style="fill-rule:nonzero;clip-rule:evenodd;stroke-linecap:round;stroke-linejoin:round" viewBox="0 0 24 24"><defs><path id="Fill" d="M21.3 8.6c-.4-1-1.3-2.2-2-2.5q.8 1.7 1 3c-1.1-2.8-3-4-4.6-6.4l-.3-.4v-.2l-.2-.4a7 7 0 0 0-3.5 5q-1 0-2 .5v.3q0 .3.3.2.8-.4 1.7-.5h.3q.8 0 1.4.2h.1l.3.1h.1l.2.1.2.1.2.2h.2a5 5 0 0 1 1.7 1.9q-.9-.7-2.4-.6c3.6 1.8 2.6 8-2.4 7.8l-1.7-.5a4 4 0 0 1-2.4-3.3s.5-1.7 3.3-1.7c.3 0 1.2-.9 1.2-1.1 0 0-1.7-.8-2.4-1.5L9 8.4 8.7 8q-.5-1.2 0-2.4-1.6.8-2.5 1.8C5.8 7 5.8 5.3 6 5l-.4.2a9 9 0 0 0-1.9 2q-1 1.3-1.3 3L2 11v1.4A10 10 0 0 0 21.9 14v-.4q.3-2.7-.6-5"/></defs><g id="Ohne-Titel"><g><use xlink:href="#Fill" stroke="#000" stroke-linecap="butt" stroke-width=".7"/><clipPath id="ClipPath" clip-rule="nonzero"><use xlink:href="#Fill"/></clipPath><g clip-path="url(#ClipPath)"><g><path fill="#8fd966" d="M1.1-.8h24.4v24.4H1z"/><g><path fill="#e88233" d="M6-.8h5v5H6z"/><path fill="#e88233" d="M16-.8h4.9v5h-5z"/><path fill="#e88233" d="M1.1 4.2h5v5H1z"/><path fill="#e88233" d="M11 4.2h5v5h-5z"/><path fill="#e88233" d="M20.9 4.2h5v5h-5z"/><path fill="#7676db" d="M6 9.1h5v5H6z"/><path fill="#e88233" d="M16 9.1h4.9v5h-5z"/><path fill="#e88233" d="M1.1 14.1h5v5H1z"/><path fill="#e88233" d="M11 14.1h5v5h-5z"/><path fill="#e88233" d="M20.9 14.1h5v5h-5z"/><path fill="#e88233" d="M6 19h5v5H6z"/><path fill="#e88233" d="M16 19h4.9v5h-5z"/></g></g></g></g></g></svg>